<?xml version="1.0" ?><svg xmlns="http://www.w3.org/2000/svg" xmlns:xlink="http://www.w3.org/1999/xlink" version="1.1" viewBox="0 0 32 32" style="enable-background:new 0 0 32 32;" xml:space="preserve"><style type="text/css">
	.st0{display:none;}
	.st1{display:inline;}
	.st2{fill:#CDF6F9;}
	.st3{fill:#FFFFFF;}
	.st4{fill:#1A83A8;}
</style><g id="Grid" class="st0"/><g id="Money"/><g id="Receipt"><path class="st2" d="M4.39,28.67C3.07,28.67,2,27.6,2,26.28V5.08l2.92-1.75l2.92,1.75l2.92-1.75l2.91,1.75l2.92-1.75l2.91,1.75   l2.92-1.75l2.91,1.75v21.2c0,1.32-1.07,2.39-2.39,2.39H4.39z"/><circle class="st3" cx="23.278" cy="21.953" r="6.722"/><path class="st4" d="M15.59,27.775H4.39c-0.822,0-1.49-0.668-1.49-1.49V5.593l2.02-1.217l2.456,1.48   c0.285,0.172,0.644,0.172,0.929,0l2.455-1.479l2.445,1.479c0.287,0.174,0.646,0.174,0.93,0.001l2.455-1.479l2.445,1.479   c0.286,0.174,0.645,0.174,0.93,0.001l2.455-1.479l2.011,1.216v6.353c0,0.497,0.403,0.9,0.9,0.9s0.9-0.403,0.9-0.9v-6.86   c0-0.315-0.165-0.607-0.434-0.77l-2.91-1.76c-0.285-0.173-0.644-0.173-0.93-0.001l-2.455,1.479l-2.445-1.479   c-0.285-0.173-0.644-0.173-0.93-0.001l-2.455,1.479l-2.445-1.479c-0.286-0.173-0.645-0.173-0.93-0.001L7.84,4.034l-2.456-1.48   c-0.285-0.172-0.644-0.172-0.929,0l-2.92,1.76C1.265,4.477,1.1,4.77,1.1,5.085v21.2c0,1.814,1.476,3.29,3.29,3.29h11.2   c0.497,0,0.9-0.403,0.9-0.9S16.087,27.775,15.59,27.775z"/><path class="st4" d="M21.375,11.971c0-0.497-0.403-0.9-0.9-0.9H6.859c-0.497,0-0.9,0.403-0.9,0.9s0.403,0.9,0.9,0.9h13.616   C20.972,12.871,21.375,12.468,21.375,11.971z"/><path class="st4" d="M15.31,16.885c0-0.497-0.403-0.9-0.9-0.9H6.86c-0.497,0-0.9,0.403-0.9,0.9s0.403,0.9,0.9,0.9h7.55   C14.907,17.785,15.31,17.382,15.31,16.885z"/><path class="st4" d="M6.859,20.891c-0.497,0-0.9,0.403-0.9,0.9s0.403,0.9,0.9,0.9h6.128c0.497,0,0.9-0.403,0.9-0.9   s-0.403-0.9-0.9-0.9H6.859z"/><path class="st4" d="M23.472,21.076c-0.802-0.183-0.935-0.354-0.932-0.344c0.015-0.226,0.502-0.4,1.229-0.448   c0.091,0.4,0.45,0.7,0.878,0.7c0.497,0,0.9-0.403,0.9-0.9c0-0.435-0.179-0.857-0.492-1.16c-0.246-0.238-0.557-0.378-0.887-0.427   c-0.018-0.481-0.408-0.868-0.893-0.868c-0.497,0-0.9,0.403-0.9,0.9v0.193c-1.296,0.428-1.591,1.309-1.631,1.887   c-0.076,1.106,0.708,1.854,2.329,2.222c0.773,0.176,0.946,0.364,0.942,0.353c-0.011,0.208-0.541,0.393-1.239,0.441   c-0.091-0.401-0.449-0.701-0.878-0.701c-0.497,0-0.9,0.403-0.9,0.9c0,0.44,0.174,0.851,0.491,1.156   c0.244,0.236,0.559,0.382,0.892,0.43c0.019,0.481,0.408,0.867,0.893,0.867c0.497,0,0.9-0.403,0.9-0.9v-0.191   c1.413-0.466,1.628-1.469,1.641-1.96C25.834,22.493,25.444,21.525,23.472,21.076z"/><path class="st4" d="M23.278,14.331c-4.203,0-7.622,3.419-7.622,7.622s3.419,7.622,7.622,7.622s7.622-3.419,7.622-7.622   S27.48,14.331,23.278,14.331z M23.278,27.775c-3.21,0-5.822-2.612-5.822-5.822c0-3.21,2.612-5.822,5.822-5.822   s5.822,2.612,5.822,5.822C29.1,25.163,26.488,27.775,23.278,27.775z"/></g><g id="Search"/><g id="Chart"/><g id="Briefcase"/><g id="Coin"/><g id="Tax"/><g id="Vision"/><g id="Contract"/><g id="Book"/><g id="Financial"/><g id="Payment_day"/><g id="Report"/><g id="Loss"/><g id="Profit"/><g id="Money_Bag"/><g id="Target"/><g id="Gold"/><g id="Safety_Box"/><g id="Wallet"/><g id="Investment"/><g id="Pie_Chart"/><g id="Home"/><g id="Assets"/><g id="Computer"/></svg>